<svg xmlns="http://www.w3.org/2000/svg" width="32" height="32" viewBox="0 0 8.467 8.467"><g opacity="1" transform="translate(-51.594)">
<!-- first half -->
<path fill="#a7abb9" fill-opacity="1" d="m 53.710932,1.8515666 c -0.06615,0 -0.120589,-0.0013 -0.183452,0.00568 -0.06286,0.00698 -0.157779,0.026521 -0.236677,0.1054199 -0.0789,0.078898 -0.09637,0.1738154 -0.103352,0.2366781 -0.007,0.062863 -0.0057,0.115238 -0.0057,0.1813842 a 0.26460979,0.26460979 0 0 0 0.0021,0.029456 l 0.529167,4.7635334 -0.0021,-0.028939 c 0,0.220486 0.101569,0.4095599 0.242364,0.550354 0.140838,0.1407936 0.329869,0.2423626 0.550357,0.2423626 h 2.646865 c 0.220488,0 0.410078,-0.1015682 0.550871,-0.2423626 0.140795,-0.140794 0.241847,-0.3298676 0.241847,-0.5503539 l -0.0021,0.028939 0.529685,-4.7635334 a 0.26460979,0.26460979 0 0 0 0.0016,-0.029456 c 0,-0.066146 0.0013,-0.1185223 -0.0057,-0.1813843 -0.007,-0.062862 -0.02445,-0.1577785 -0.103352,-0.236678 -0.0789,-0.078899 -0.175366,-0.098435 -0.238228,-0.10542 -0.06286,-0.00698 -0.115755,-0.00568 -0.181901,-0.00568 z" color="#000" font-family="sans-serif" font-weight="400" overflow="visible" paint-order="markers fill stroke" style="line-height:normal;font-variant-ligatures:normal;font-variant-position:normal;font-variant-caps:normal;font-variant-numeric:normal;font-variant-alternates:normal;font-feature-settings:normal;text-indent:0;text-align:start;text-decoration-line:none;text-decoration-style:solid;text-decoration-color:#000;text-transform:none;text-orientation:mixed;shape-padding:0;isolation:auto;mix-blend-mode:normal"/>

<!-- second half  -->
<path fill="#a7abb9" style="line-height:normal;font-variant-ligatures:normal;font-variant-position:normal;font-variant-caps:normal;font-variant-numeric:normal;font-variant-alternates:normal;font-feature-settings:normal;text-indent:0;text-align:start;text-decoration-line:none;text-decoration-style:solid;text-decoration-color:#000;text-transform:none;text-orientation:mixed;shape-padding:0;isolation:auto;mix-blend-mode:normal" d="m 55.827083,1.8515666 v 6.0859333 h 1.323432 c 0.220488,0 0.410078,-0.101568 0.550871,-0.2423626 0.140795,-0.1407937 0.241847,-0.3298676 0.241847,-0.5503539 l -0.0021,0.028939 0.529685,-4.7635334 a 0.26460979,0.26460979 0 0 0 0.0016,-0.029456 c 0,-0.066146 0.0013,-0.1185223 -0.0057,-0.1813843 -0.007,-0.062862 -0.02445,-0.1577785 -0.103352,-0.236678 -0.0789,-0.078899 -0.175366,-0.098435 -0.238228,-0.10542 -0.06286,-0.00698 -0.115755,-0.00568 -0.181901,-0.00568 z" color="#000" font-family="sans-serif" font-weight="400" overflow="visible" paint-order="markers fill stroke"/>

<!-- lines in trash  -->
<path fill="black" d="M 55.003906,3.7011719 A 0.26460981,0.26460981 0 0 0 54.769531,3.96875 v 1.8515625 a 0.2646485,0.2646485 0 1 0 0.529297,0 V 3.96875 A 0.26460981,0.26460981 0 0 0 55.003906,3.7011719 Z" color="#000" font-family="sans-serif" font-weight="400" overflow="visible" paint-order="markers fill stroke" style="line-height:normal;font-variant-ligatures:normal;font-variant-position:normal;font-variant-caps:normal;font-variant-numeric:normal;font-variant-alternates:normal;font-feature-settings:normal;text-indent:0;text-align:start;text-decoration-line:none;text-decoration-style:solid;text-decoration-color:#000;text-transform:none;text-orientation:mixed;shape-padding:0;isolation:auto;mix-blend-mode:normal"/>
<path fill="black" d="M 56.589844,3.7011719 A 0.26460981,0.26460981 0 0 0 56.355469,3.96875 v 1.8515625 a 0.2646485,0.2646485 0 1 0 0.529297,0 V 3.96875 A 0.26460981,0.26460981 0 0 0 56.589844,3.7011719 Z" color="#000" font-family="sans-serif" font-weight="400" overflow="visible" paint-order="markers fill stroke" style="line-height:normal;font-variant-ligatures:normal;font-variant-position:normal;font-variant-caps:normal;font-variant-numeric:normal;font-variant-alternates:normal;font-feature-settings:normal;text-indent:0;text-align:start;text-decoration-line:none;text-decoration-style:solid;text-decoration-color:#000;text-transform:none;text-orientation:mixed;shape-padding:0;isolation:auto;mix-blend-mode:normal"/>

 <!-- top underline on box  -->
<path fill="black" fill-opacity="1" d="m 54.503906,0.52929688 a 0.27670513,0.27670513 0 0 0 0.02734,0.55273432 h 2.591797 a 0.27636716,0.27636716 0 1 0 0,-0.55273432 H 54.53125 a 0.27601877,0.27601877 0 0 0 -0.02734,0 z" color="#000" font-family="sans-serif" font-weight="400" overflow="visible" style="line-height:normal;font-variant-ligatures:normal;font-variant-position:normal;font-variant-caps:normal;font-variant-numeric:normal;font-variant-alternates:normal;font-feature-settings:normal;text-indent:0;text-align:start;text-decoration-line:none;text-decoration-style:solid;text-decoration-color:#000;text-transform:none;text-orientation:mixed;shape-padding:0;isolation:auto;mix-blend-mode:normal"/>

<path fill="black" style="line-height:normal;font-variant-ligatures:normal;font-variant-position:normal;font-variant-caps:normal;font-variant-numeric:normal;font-variant-alternates:normal;font-feature-settings:normal;text-indent:0;text-align:start;text-decoration-line:none;text-decoration-style:solid;text-decoration-color:#000;text-transform:none;text-orientation:mixed;shape-padding:0;isolation:auto;mix-blend-mode:normal" d="M 55.827083,0.52916666 V 1.0821045 h 1.296045 a 0.27646892,0.27646892 0 1 0 0,-0.55293784 z" color="#000" font-family="sans-serif" font-weight="400" overflow="visible"/></g></svg>